<svg xmlns="http://www.w3.org/2000/svg" xmlns:xlink="http://www.w3.org/1999/xlink" class="" app-context="doc-2d" x="0px" y="0px" width="500" height="500" jvs-fullPath="gdrive/Mono.svg"><title/><desc/><defs/><g id="jvs-guides" transform="matrix(1 0 0 1 0 0)"/><g id="jvs-content" enable-background="new"><g transform="matrix(1,0,0,1,0,0)" name="Layer" jvs-layer-color="#fb0094" class="jvs-layer selected"><g transform="matrix(1 0 0 1 44.8362 -4.15451)"><g transform="matrix(1 0 0 1 0 0)"><path d="M 244.3878631591797 371.02520751953125 L 243.4991912841797 371.02520751953125 C 241.72181701660156 371.02520751953125 240.38877868652344 370.13653564453125 239.50010681152344 368.8034973144531 C 238.6114044189453 367.4704895019531 238.6114044189453 365.693115234375 239.50010681152344 364.3600769042969 L 239.94444274902344 363.915771484375 C 240.38877868652344 363.0270690917969 241.72181701660156 362.1383972167969 242.61045837402344 361.69403076171875 C 243.9435272216797 361.24969482421875 244.8321990966797 361.69403076171875 246.1652374267578 362.1383972167969 L 246.6095733642578 362.5827331542969 C 247.94261169433594 363.471435546875 248.83128356933594 364.8044128417969 248.83128356933594 366.581787109375 C 248.83128356933594 368.3591613769531 247.94261169433594 369.6921691894531 246.6095733642578 370.58087158203125 C 246.1652374267578 370.58087158203125 245.2765350341797 371.02520751953125 244.3878631591797 371.02520751953125 Z" transform="matrix(1 0 0 1 0 0)"/></g><g transform="matrix(1 0 0 1 0 0)"><path d="M 277.2691650390625 248.83126831054688 C 276.3804626464844 248.83126831054688 275.9361267089844 248.83126831054688 275.0474548339844 248.38693237304688 C 273.71441650390625 247.49822998046875 272.82574462890625 246.1652069091797 272.82574462890625 244.38784790039062 L 272.82574462890625 106.1976318359375 L 153.29782104492188 37.32468795776367 C 151.5204620361328 36.43600845336914 150.6317901611328 34.21430206298828 151.0761260986328 32.43693542480469 C 151.5204620361328 30.65956687927246 153.29782104492188 29.326541900634766 155.51953125 29.326541900634766 L 244.3878631591797 29.326541900634766 C 245.2765350341797 29.326541900634766 245.7208709716797 29.326541900634766 246.6095733642578 29.77088165283203 L 323.9250183105469 74.20504760742188 C 325.2580261230469 75.09371948242188 326.146728515625 76.4267578125 326.146728515625 78.20411682128906 L 326.146728515625 219.0603790283203 C 326.146728515625 220.8377685546875 325.2580261230469 222.1707763671875 323.9250183105469 223.05946350097656 L 279.4908752441406 248.83126831054688 C 278.6021728515625 248.83126831054688 278.1578369140625 248.83126831054688 277.2691650390625 248.83126831054688 Z M 171.96017456054688 37.76903533935547 L 279.0465087890625 99.53250122070312 C 280.3795166015625 100.42119598388672 281.26824951171875 101.75421142578125 281.26824951171875 103.53157806396484 L 281.26824951171875 236.83404541015625 L 316.8155822753906 216.39434814453125 L 316.8155822753906 80.87016296386719 L 243.4991912841797 37.76903533935547 L 171.96017456054688 37.76903533935547 Z" transform="matrix(1 0 0 1 0 0)"/></g><g transform="matrix(1 0 0 1 0 0)"><path d="M 244.8321990966797 370.58087158203125 C 243.9435272216797 370.58087158203125 243.4991912841797 370.58087158203125 242.61045837402344 370.13653564453125 L 120.41654968261719 299.4862060546875 C 119.08352661132812 298.5975341796875 118.19485473632812 297.2645263671875 118.19485473632812 295.4871520996094 L 118.19485473632812 244.38784790039062 C 118.19485473632812 242.6104736328125 119.08352661132812 241.27745056152344 120.41654968261719 240.38877868652344 C 121.74958801269531 239.50009155273438 123.52694702148438 239.50009155273438 124.85997009277344 240.38877868652344 L 244.3878631591797 309.7060852050781 L 363.915771484375 240.83311462402344 C 365.6931457519531 239.94444274902344 367.91485595703125 239.94444274902344 369.24786376953125 241.72178649902344 C 370.58087158203125 243.4991455078125 371.02520751953125 245.2765350341797 370.13653564453125 247.05389404296875 L 325.702392578125 323.9250183105469 C 325.2580261230469 324.8136901855469 324.8136901855469 325.2580261230469 323.9250183105469 325.702392578125 L 247.0538787841797 370.13653564453125 C 246.1652374267578 370.58087158203125 245.2765350341797 370.58087158203125 244.8321990966797 370.58087158203125 Z M 127.08168029785156 293.26544189453125 L 244.8321990966797 361.24969482421875 L 318.5928955078125 318.5928955078125 L 354.1402282714844 256.82940673828125 L 247.0538787841797 318.5928955078125 C 245.7208709716797 319.48162841796875 243.9435272216797 319.48162841796875 242.61045837402344 318.5928955078125 L 127.52601623535156 251.941650390625 L 127.52601623535156 293.26544189453125 Z" transform="matrix(1 0 0 1 0 0)"/></g><g transform="matrix(1 0 0 1 0 0)"><path d="M 244.8321990966797 319.48162841796875 C 243.9435272216797 319.48162841796875 243.4991912841797 319.48162841796875 242.61045837402344 319.0372619628906 L 197.73199462890625 293.26544189453125 C 196.39895629882812 292.37677001953125 195.51028442382812 291.0437316894531 195.51028442382812 289.266357421875 C 195.51028442382812 287.4889831542969 196.39895629882812 286.156005859375 197.73199462890625 285.26727294921875 L 317.2598876953125 216.39434814453125 L 317.2598876953125 78.20411682128906 C 317.2598876953125 75.98240661621094 318.5928955078125 74.64937591552734 320.37030029296875 73.76069641113281 C 322.14764404296875 73.31636047363281 324.369384765625 74.20504760742188 325.2580261230469 75.98240661621094 L 369.6921691894531 152.85350036621094 C 370.13653564453125 153.74215698242188 370.58087158203125 154.630859375 370.58087158203125 155.07521057128906 L 370.58087158203125 244.38784790039062 C 370.58087158203125 245.2765350341797 370.58087158203125 245.7208709716797 370.13653564453125 246.6095428466797 C 369.6921691894531 247.49822998046875 369.24786376953125 247.94256591796875 368.35919189453125 248.38693237304688 L 247.0538787841797 318.5928955078125 C 246.1652374267578 319.0372619628906 245.2765350341797 319.48162841796875 244.8321990966797 319.48162841796875 Z M 208.8405303955078 289.266357421875 L 244.8321990966797 310.15045166015625 L 362.1383972167969 242.6104736328125 L 362.1383972167969 156.40821838378906 L 326.591064453125 94.64474487304688 L 326.591064453125 218.61605834960938 C 326.591064453125 220.39340209960938 325.702392578125 221.7264404296875 324.369384765625 222.6151123046875 L 208.8405303955078 289.266357421875 Z" transform="matrix(1 0 0 1 0 0)"/></g><g transform="matrix(1 0 0 1 0 0)"><path d="M 33.769954681396484 159.96295166015625 C 32.43693161010742 159.96295166015625 30.659564971923828 159.07427978515625 29.770885467529297 157.7412567138672 L 29.770885467529297 157.2969207763672 C 28.882198333740234 155.9638671875 28.882198333740234 154.1865234375 29.770885467529297 152.85350036621094 L 74.20504760742188 75.98240661621094 C 74.64938354492188 75.09371948242188 75.09371948242188 74.64937591552734 75.98240661621094 74.20504760742188 L 152.85350036621094 29.77088165283203 C 154.1865234375 28.882200241088867 156.40823364257812 28.882200241088867 157.74124145507812 29.77088165283203 L 279.4908752441406 99.97685241699219 C 280.8238830566406 100.86553192138672 281.71258544921875 102.19856262207031 281.71258544921875 103.97592163085938 L 281.71258544921875 155.51954650878906 C 281.71258544921875 157.2969207763672 280.8238830566406 158.6299285888672 279.4908752441406 159.5186309814453 C 278.1578369140625 160.40728759765625 276.3804626464844 160.40728759765625 275.0474548339844 159.5186309814453 L 155.51953125 90.20133972167969 L 35.99167251586914 159.07427978515625 C 35.10298538208008 159.5186309814453 34.65864181518555 159.96295166015625 33.769954681396484 159.96295166015625 Z M 155.51953125 80.87016296386719 C 156.40823364257812 80.87016296386719 156.85256958007812 80.87016296386719 157.74124145507812 81.31450653076172 L 272.82574462890625 147.5214080810547 L 272.82574462890625 106.1976318359375 L 155.51953125 38.65771484375 L 81.31449890136719 81.31450653076172 L 45.32284164428711 143.52232360839844 L 153.29782104492188 81.31450653076172 C 154.1865234375 80.87016296386719 154.630859375 80.87016296386719 155.51953125 80.87016296386719 Z" transform="matrix(1 0 0 1 0 0)"/></g><g transform="matrix(1 0 0 1 0 0)"><path d="M 78.20411682128906 326.146728515625 C 76.4267578125 326.146728515625 75.09371948242188 325.2580261230469 74.20504760742188 323.9250183105469 L 29.770885467529297 246.6095428466797 C 29.326541900634766 245.7208709716797 29.326541900634766 245.2765350341797 29.326541900634766 244.38784790039062 L 29.326541900634766 155.51954650878906 C 29.326541900634766 153.74215698242188 30.215229034423828 152.40914916992188 31.54825210571289 151.5204620361328 L 153.74215698242188 80.87016296386719 C 155.07521057128906 79.98148345947266 156.85256958007812 79.98148345947266 158.18557739257812 80.87016296386719 L 202.61973571777344 106.6419677734375 C 203.95278930664062 107.5306625366211 204.84144592285156 108.86367797851562 204.84144592285156 110.64104461669922 C 204.84144592285156 112.41841888427734 203.95278930664062 113.75143432617188 202.61973571777344 114.6401138305664 L 82.64753723144531 183.5130615234375 L 82.64753723144531 321.70330810546875 C 82.64753723144531 323.9250183105469 81.31449890136719 325.2580261230469 79.53713989257812 326.146728515625 C 79.09278869628906 326.146728515625 78.64846801757812 326.146728515625 78.20411682128906 326.146728515625 Z M 37.7690315246582 243.4991455078125 L 73.31636047363281 305.2626647949219 L 73.31636047363281 181.29135131835938 C 73.31636047363281 179.5139923095703 74.20504760742188 178.1809539794922 75.53807067871094 177.2922821044922 L 190.62252807617188 110.64104461669922 L 155.07521057128906 90.20133972167969 L 37.7690315246582 158.18557739257812 L 37.7690315246582 243.4991455078125 Z" transform="matrix(1 0 0 1 0 0)"/></g><g transform="matrix(1 0 0 1 0 0)"><path d="M 243.9435272216797 371.02520751953125 L 155.51953125 371.02520751953125 C 154.630859375 371.02520751953125 153.74215698242188 371.02520751953125 153.29782104492188 370.58087158203125 L 75.98240661621094 326.146728515625 C 74.64938354492188 325.2580261230469 73.76069641113281 323.9250183105469 73.76069641113281 322.14764404296875 L 73.76069641113281 181.29135131835938 C 73.76069641113281 179.5139923095703 74.64938354492188 178.1809539794922 75.98240661621094 177.2922821044922 L 120.41654968261719 151.5204620361328 C 121.74958801269531 150.6317901611328 123.52694702148438 150.6317901611328 124.85997009277344 151.5204620361328 C 126.19300842285156 152.40914916992188 127.08168029785156 153.74215698242188 127.08168029785156 155.51954650878906 L 127.08168029785156 293.26544189453125 L 246.1652374267578 362.1383972167969 C 248.38694763183594 363.471435546875 248.83128356933594 366.137451171875 247.94261169433594 368.3591613769531 L 247.4982452392578 368.8034973144531 C 247.0538787841797 370.13653564453125 245.2765350341797 371.02520751953125 243.9435272216797 371.02520751953125 Z M 156.40823364257812 362.1383972167969 L 227.9472198486328 362.1383972167969 L 119.97221374511719 299.9305419921875 C 118.63919067382812 299.0419006347656 117.75050354003906 297.7088623046875 117.75050354003906 295.9314880371094 L 117.75050354003906 163.07334899902344 L 82.20318603515625 183.5130615234375 L 82.20318603515625 319.0372619628906 L 156.40823364257812 362.1383972167969 Z" transform="matrix(1 0 0 1 0 0)"/></g><g transform="matrix(1 0 0 1 0 0)"><rect x="199.954" y="110.641" fill="none" width="0" height="0" transform="matrix(1 0 0 1 -7.15459e-8 -4.13677e-7)" rx="0"/></g><g transform="matrix(1 0 0 1 0 0)"><rect x="199.954" y="289.267" fill="none" width="0" height="0" transform="matrix(1 0 0 1 -7.15459e-8 -4.13677e-7)" rx="0"/></g></g><g transform="matrix(1 0 0 1 -5.99742 372.754)" selected="true"><path d="M150.474 100L156.774 100L156.774 32L152.674 32L128.174 67.800L103.274 32L99.774 32L99.774 100L105.974 100L105.974 45.300L127.374 77L129.374 76.600L150.474 44.800L150.474 100ZM212.574 30.400Q203.474 30.600 196.224 35.300Q188.974 40 184.874 48.100Q180.774 56.200 180.774 66.300Q180.774 76.400 184.774 84.400Q188.774 92.400 195.924 96.900Q203.074 101.400 211.974 101.400Q221.074 101.300 228.374 96.600Q235.674 91.900 239.774 83.750Q243.874 75.600 243.874 65.500Q243.874 55.400 239.874 47.400Q235.874 39.400 228.724 34.900Q221.574 30.400 212.574 30.400M187.374 66.200Q187.374 57.600 190.624 50.700Q193.874 43.800 199.624 39.900Q205.374 36 212.674 36Q219.674 36 225.224 39.800Q230.774 43.600 233.924 50.350Q237.074 57.100 237.074 65.600Q237.074 74.300 233.824 81.200Q230.574 88.100 224.824 92Q219.074 95.900 211.774 95.900Q204.774 95.900 199.224 92.050Q193.674 88.200 190.524 81.450Q187.374 74.700 187.374 66.200ZM275.474 46.900L313.274 100L317.374 100L317.374 32L311.074 32L311.074 87.100L307.674 81.200L271.974 32L267.874 32L267.874 100L274.074 100L274.074 44L275.474 46.900ZM373.174 30.400Q364.074 30.600 356.824 35.300Q349.574 40 345.474 48.100Q341.374 56.200 341.374 66.300Q341.374 76.400 345.374 84.400Q349.374 92.400 356.524 96.900Q363.674 101.400 372.574 101.400Q381.674 101.300 388.974 96.600Q396.274 91.900 400.374 83.750Q404.474 75.600 404.474 65.500Q404.474 55.400 400.474 47.400Q396.474 39.400 389.324 34.900Q382.174 30.400 373.174 30.400M347.974 66.200Q347.974 57.600 351.224 50.700Q354.474 43.800 360.224 39.900Q365.974 36 373.274 36Q380.274 36 385.824 39.800Q391.374 43.600 394.524 50.350Q397.674 57.100 397.674 65.600Q397.674 74.300 394.424 81.200Q391.174 88.100 385.424 92Q379.674 95.900 372.374 95.900Q365.374 95.900 359.824 92.050Q354.274 88.200 351.124 81.450Q347.974 74.700 347.974 66.200Z" stroke-width="1.00" stroke="none" fill="#000000" transform="matrix(1 0 0 1 0 0)"/></g></g></g></svg>